<?xml version="1.0" standalone="no"?>
<!DOCTYPE svg PUBLIC "-//W3C//DTD SVG 20010904//EN"
 "http://www.w3.org/TR/2001/REC-SVG-20010904/DTD/svg10.dtd">
<svg version="1.0" xmlns="http://www.w3.org/2000/svg"
 width="700.000000pt" height="700.000000pt" viewBox="0 0 700.000000 700.000000"
 preserveAspectRatio="xMidYMid meet">
<metadata>
Created by potrace 1.14, written by Peter Selinger 2001-2017
</metadata>
<g transform="translate(0.000000,700.000000) scale(0.100000,-0.100000)"
fill="#000000" stroke="none">
<path d="M364 5366 l-34 -34 0 -321 c0 -357 2 -371 63 -395 18 -8 132 -33 254
-57 l222 -43 3 -196 c3 -211 9 -233 63 -258 25 -12 381 -69 605 -97 69 -9 136
-18 149 -21 l24 -5 -7 -127 c-4 -70 -9 -169 -13 -219 l-6 -93 -73 0 c-99 0
-169 -27 -224 -86 -56 -61 -73 -105 -74 -189 0 -61 4 -78 30 -125 53 -95 152
-150 267 -150 l50 0 -6 -77 c-3 -43 -31 -575 -62 -1183 -31 -608 -58 -1115
-61 -1127 l-4 -23 -333 0 c-307 0 -334 -1 -363 -19 -60 -37 -69 -124 -18 -172
l26 -24 2656 -2 c2618 -3 2657 -3 2689 16 58 36 64 117 11 168 l-29 28 -249 3
-248 3 -6 82 c-6 75 -116 2272 -116 2308 0 13 16 17 74 22 89 6 150 31 201 82
110 111 104 292 -13 395 -55 49 -121 70 -219 70 -73 0 -73 0 -73 28 0 15 -5
112 -11 216 -6 103 -8 190 -5 193 2 3 101 18 218 34 117 16 291 42 386 57 155
26 176 31 200 56 l27 26 5 202 5 202 237 47 c130 26 246 52 257 58 48 26 51
48 51 392 l0 321 -34 34 c-24 24 -43 34 -64 34 -17 0 -116 -25 -220 -55 -744
-216 -1480 -349 -2272 -410 -277 -22 -895 -30 -1175 -16 -863 44 -1682 184
-2485 425 -102 31 -198 56 -213 56 -20 0 -40 -11 -63 -34z m413 -291 c744
-208 1499 -333 2268 -375 239 -13 824 -13 1055 0 661 37 1229 117 1886 266
192 43 562 138 667 170 16 5 17 -7 17 -164 l0 -169 -167 -32 c-1057 -207
-1989 -291 -3073 -278 -955 11 -1777 95 -2692 274 l-188 36 0 170 c0 157 1
169 18 162 9 -4 103 -31 209 -60z m1764 -1210 c190 -13 638 -35 711 -35 l28 0
0 -165 0 -165 -485 0 -485 0 0 190 c0 105 4 190 8 190 5 0 105 -7 223 -15z
m2379 -175 l0 -190 -490 0 -490 0 0 164 0 164 148 6 c256 11 561 28 655 36 51
4 111 8 135 9 l42 1 0 -190z m-1200 -30 l0 -160 -110 0 -110 0 0 160 0 160
110 0 110 0 0 -160z m1200 -1915 l0 -1205 -1305 0 -1305 0 0 1205 0 1205 1305
0 1305 0 0 -1205z"/>
</g>
</svg>
